# xmcd
#
# Track frame offsets: 
#        150
#        22433
#        45518
#        66984
#        85652
#        104623
#        125781
#        147501
#        164804
#        187695
#        211402
#        224733
#        247105
#        266963
#        299523
#        315072
#        330783
#
# Disc length: 4818 seconds
#
# Revision: 0
# Processed by: cddbd v1.4PL0 Copyright (c) Steve Scherf et al.
# Submitted via: ExactAudioCopy v0.90b3
#
DISCID=1312d011
DTITLE=Chris Rea - King Of The Beach
DYEAR=2001
DGENRE=Blues
TTITLE0=King Of The Beach
TTITLE1=All Summer Long
TTITLE2=Sail Away
TTITLE3=Still Beautiful
TTITLE4=The Bones Of Angels
TTITLE5=Guitar Street
TTITLE6=Who Do You Love
TTITLE7=The Memory Of A Good Friend
TTITLE8=Sandwriting
TTITLE9=Tamatave
TTITLE10=God Gave Me An Angel
TTITLE11=Waiting For A Blue Sky
TTITLE12=The Road To Hell
TTITLE13=Nothing To Fear
TTITLE14=I Just Wanna Be With You
TTITLE15=Thinking Of You
TTITLE16=On The Beach
EXTD=
EXTT0=
EXTT1=
EXTT2=
EXTT3=
EXTT4=
EXTT5=
EXTT6=
EXTT7=
EXTT8=
EXTT9=
EXTT10=
EXTT11=
EXTT12=
EXTT13=
EXTT14=
EXTT15=
EXTT16=
PLAYORDER=
